<svg width="30" height="27" viewBox="0 0 30 27" fill="none" xmlns="http://www.w3.org/2000/svg">
<g id="mdi:car" clip-path="url(#clip0_1_1006)">
<path id="Vector" d="M3.33333 10.125L5.83333 2.53125H24.1667L26.6667 10.125M24.1667 18.5625C23.5036 18.5625 22.8677 18.2958 22.3989 17.8211C21.9301 17.3464 21.6667 16.7026 21.6667 16.0312C21.6667 15.3599 21.9301 14.7161 22.3989 14.2414C22.8677 13.7667 23.5036 13.5 24.1667 13.5C24.8297 13.5 25.4656 13.7667 25.9344 14.2414C26.4033 14.7161 26.6667 15.3599 26.6667 16.0312C26.6667 16.7026 26.4033 17.3464 25.9344 17.8211C25.4656 18.2958 24.8297 18.5625 24.1667 18.5625ZM5.83333 18.5625C5.17029 18.5625 4.53441 18.2958 4.06557 17.8211C3.59672 17.3464 3.33333 16.7026 3.33333 16.0312C3.33333 15.3599 3.59672 14.7161 4.06557 14.2414C4.53441 13.7667 5.17029 13.5 5.83333 13.5C6.49637 13.5 7.13226 13.7667 7.6011 14.2414C8.06994 14.7161 8.33333 15.3599 8.33333 16.0312C8.33333 16.7026 8.06994 17.3464 7.6011 17.8211C7.13226 18.2958 6.49637 18.5625 5.83333 18.5625ZM26.5333 1.6875C26.2 0.70875 25.2667 0 24.1667 0H5.83333C4.73333 0 3.8 0.70875 3.46667 1.6875L0 11.8125V25.3125C0 25.7601 0.175595 26.1893 0.488155 26.5057C0.800716 26.8222 1.22464 27 1.66667 27H3.33333C3.77536 27 4.19928 26.8222 4.51184 26.5057C4.8244 26.1893 5 25.7601 5 25.3125V23.625H25V25.3125C25 25.7601 25.1756 26.1893 25.4882 26.5057C25.8007 26.8222 26.2246 27 26.6667 27H28.3333C28.7754 27 29.1993 26.8222 29.5118 26.5057C29.8244 26.1893 30 25.7601 30 25.3125V11.8125L26.5333 1.6875Z" fill="#525252"/>
</g>
<defs>
<clipPath id="clip0_1_1006">
<rect width="30" height="27" fill="white"/>
</clipPath>
</defs>
</svg>
