<svg width="23" height="23" viewBox="0 0 23 23" fill="none" xmlns="http://www.w3.org/2000/svg">
<g id="material-symbols:search-rounded">
<path id="Vector" d="M9.10414 15.3332C7.36318 15.3332 5.8899 14.73 4.68433 13.5238C3.47875 12.3176 2.87564 10.8443 2.875 9.10401C2.87436 7.36369 3.47747 5.89042 4.68433 4.6842C5.89118 3.47798 7.36445 2.87487 9.10414 2.87487C10.8438 2.87487 12.3174 3.47798 13.5249 4.6842C14.7324 5.89042 15.3352 7.36369 15.3333 9.10401C15.3333 9.80679 15.2215 10.4696 14.9979 11.0925C14.7743 11.7155 14.4708 12.2665 14.0875 12.7457L19.4541 18.1123C19.6298 18.288 19.7176 18.5116 19.7176 18.7831C19.7176 19.0547 19.6298 19.2783 19.4541 19.454C19.2784 19.6297 19.0548 19.7175 18.7833 19.7175C18.5117 19.7175 18.2881 19.6297 18.1124 19.454L12.7458 14.0873C12.2666 14.4707 11.7156 14.7741 11.0927 14.9977C10.4698 15.2214 9.80692 15.3332 9.10414 15.3332ZM9.10414 13.4165C10.3021 13.4165 11.3204 12.9974 12.1593 12.1592C12.9982 11.3209 13.4173 10.3026 13.4166 9.10401C13.416 7.90546 12.9969 6.8874 12.1593 6.04982C11.3217 5.21224 10.3033 4.79281 9.10414 4.79153C7.90495 4.79025 6.88689 5.20968 6.04995 6.04982C5.213 6.88995 4.79358 7.90802 4.79166 9.10401C4.78974 10.3 5.20917 11.3184 6.04995 12.1592C6.89072 12.9999 7.90879 13.4191 9.10414 13.4165Z" fill="#666666"/>
</g>
</svg>
