<svg width="17" height="17" viewBox="0 0 17 17" fill="none" xmlns="http://www.w3.org/2000/svg">
<g id="octicon:alert-fill-16" clip-path="url(#clip0_0_8)">
<path id="Vector" d="M6.86046 1.11255C7.56064 -0.198556 9.43912 -0.198556 10.1393 1.11255L16.6014 13.2015C16.7528 13.4848 16.8282 13.8025 16.8204 14.1236C16.8125 14.4447 16.7216 14.7583 16.5565 15.0338C16.3914 15.3093 16.1578 15.5374 15.8783 15.6958C15.5988 15.8541 15.2831 15.9374 14.9619 15.9375H2.03782C1.71662 15.9374 1.40091 15.8541 1.12146 15.6958C0.842006 15.5374 0.608346 15.3093 0.443245 15.0338C0.278145 14.7583 0.187236 14.4447 0.179377 14.1236C0.171518 13.8025 0.246978 13.4848 0.398402 13.2015L6.86046 1.11255ZM8.49988 5.31257C8.28854 5.31257 8.08585 5.39653 7.93641 5.54597C7.78697 5.69541 7.70301 5.8981 7.70301 6.10944V8.76566C7.70301 8.977 7.78697 9.17969 7.93641 9.32913C8.08585 9.47857 8.28854 9.56252 8.49988 9.56252C8.71122 9.56252 8.91391 9.47857 9.06335 9.32913C9.21279 9.17969 9.29675 8.977 9.29675 8.76566V6.10944C9.29675 5.8981 9.21279 5.69541 9.06335 5.54597C8.91391 5.39653 8.71122 5.31257 8.49988 5.31257ZM9.56237 11.6875C9.56237 11.4057 9.45043 11.1355 9.25117 10.9362C9.05192 10.737 8.78167 10.625 8.49988 10.625C8.21809 10.625 7.94784 10.737 7.74859 10.9362C7.54933 11.1355 7.43739 11.4057 7.43739 11.6875C7.43739 11.9693 7.54933 12.2395 7.74859 12.4388C7.94784 12.638 8.21809 12.75 8.49988 12.75C8.78167 12.75 9.05192 12.638 9.25117 12.4388C9.45043 12.2395 9.56237 11.9693 9.56237 11.6875Z" fill="#333333"/>
</g>
<defs>
<clipPath id="clip0_0_8">
<rect width="16.3802" height="16.3802" fill="white" transform="scale(1.03783)"/>
</clipPath>
</defs>
</svg>
