<svg width="19" height="19" viewBox="0 0 19 19" fill="none" xmlns="http://www.w3.org/2000/svg">
<g id="basil:document-solid">
<path id="Vector" fill-rule="evenodd" clip-rule="evenodd" d="M11.2812 1.97913C11.2812 1.92664 11.2604 1.8763 11.2232 1.83919C11.1861 1.80207 11.1358 1.78122 11.0833 1.78122H5.54165C4.96425 1.78122 4.4105 2.01059 4.00222 2.41887C3.59394 2.82715 3.36457 3.3809 3.36457 3.95829V15.0416C3.36457 15.619 3.59394 16.1727 4.00222 16.581C4.4105 16.9893 4.96425 17.2187 5.54165 17.2187H13.4583C14.0357 17.2187 14.5894 16.9893 14.9977 16.581C15.406 16.1727 15.6354 15.619 15.6354 15.0416V7.24132C15.6354 7.18883 15.6145 7.13849 15.5774 7.10138C15.5403 7.06426 15.4899 7.04341 15.4374 7.04341H11.875C11.7175 7.04341 11.5665 6.98085 11.4551 6.8695C11.3438 6.75815 11.2812 6.60713 11.2812 6.44966V1.97913ZM11.875 9.69786C12.0324 9.69786 12.1835 9.76041 12.2948 9.87176C12.4062 9.98311 12.4687 10.1341 12.4687 10.2916C12.4687 10.4491 12.4062 10.6001 12.2948 10.7114C12.1835 10.8228 12.0324 10.8854 11.875 10.8854H7.12498C6.9675 10.8854 6.81648 10.8228 6.70513 10.7114C6.59378 10.6001 6.53123 10.4491 6.53123 10.2916C6.53123 10.1341 6.59378 9.98311 6.70513 9.87176C6.81648 9.76041 6.9675 9.69786 7.12498 9.69786H11.875ZM11.875 12.8645C12.0324 12.8645 12.1835 12.9271 12.2948 13.0384C12.4062 13.1498 12.4687 13.3008 12.4687 13.4583C12.4687 13.6157 12.4062 13.7668 12.2948 13.8781C12.1835 13.9895 12.0324 14.052 11.875 14.052H7.12498C6.9675 14.052 6.81648 13.9895 6.70513 13.8781C6.59378 13.7668 6.53123 13.6157 6.53123 13.4583C6.53123 13.3008 6.59378 13.1498 6.70513 13.0384C6.81648 12.9271 6.9675 12.8645 7.12498 12.8645H11.875Z" fill="#333333"/>
<path id="Vector_2" d="M12.4687 2.2357C12.4687 2.09003 12.6215 1.99741 12.7347 2.08845C12.8308 2.16603 12.916 2.25628 12.9904 2.3592L15.3757 5.68181C15.4295 5.75781 15.371 5.85598 15.2775 5.85598H12.6666C12.6141 5.85598 12.5638 5.83513 12.5267 5.79801C12.4896 5.76089 12.4687 5.71055 12.4687 5.65806V2.2357Z" fill="#333333"/>
</g>
</svg>
