<svg width="25" height="25" viewBox="0 0 25 25" fill="none" xmlns="http://www.w3.org/2000/svg">
<g id="ion:notifications">
<path id="Vector" d="M21.4882 16.6655C21.4072 16.5679 21.3276 16.4702 21.2495 16.376C20.1753 15.0767 19.5254 14.2925 19.5254 10.6143C19.5254 8.70996 19.0698 7.14746 18.1718 5.97559C17.5097 5.10986 16.6147 4.45312 15.435 3.96777C15.4198 3.95933 15.4063 3.94825 15.395 3.93506C14.9707 2.51416 13.8095 1.5625 12.5 1.5625C11.1904 1.5625 10.0298 2.51416 9.60544 3.93359C9.59413 3.94632 9.58076 3.95705 9.56589 3.96533C6.81296 5.09863 5.47507 7.27295 5.47507 10.6128C5.47507 14.2925 4.82614 15.0767 3.75095 16.3745C3.67282 16.4688 3.59323 16.5645 3.51218 16.6641C3.3028 16.9166 3.17015 17.2238 3.12991 17.5493C3.08967 17.8748 3.14354 18.2051 3.28513 18.501C3.5864 19.1357 4.22849 19.5298 4.9614 19.5298H20.0439C20.7734 19.5298 21.4111 19.1362 21.7133 18.5044C21.8555 18.2084 21.9099 17.8779 21.87 17.552C21.8301 17.2261 21.6976 16.9184 21.4882 16.6655ZM12.5 23.4375C13.2056 23.4369 13.8978 23.2454 14.5034 22.8832C15.1089 22.5211 15.6051 22.0017 15.9394 21.3804C15.9552 21.3506 15.9629 21.3172 15.962 21.2836C15.9611 21.2499 15.9514 21.217 15.934 21.1882C15.9166 21.1594 15.8921 21.1355 15.8627 21.1189C15.8334 21.1024 15.8003 21.0937 15.7666 21.0938H9.23435C9.20062 21.0936 9.16743 21.1022 9.13803 21.1188C9.10862 21.1353 9.08399 21.1591 9.06653 21.188C9.04908 21.2168 9.0394 21.2497 9.03843 21.2835C9.03746 21.3172 9.04524 21.3506 9.06101 21.3804C9.39525 22.0017 9.8914 22.5209 10.4968 22.8831C11.1023 23.2453 11.7945 23.4368 12.5 23.4375Z" fill="#333333"/>
</g>
</svg>
