<svg width="18" height="18" viewBox="0 0 18 18" fill="none" xmlns="http://www.w3.org/2000/svg">
<g id="famicons:card-sharp">
<path id="Vector" d="M1.12499 14.6252C1.12499 14.7744 1.18426 14.9175 1.28974 15.023C1.39523 15.1285 1.53831 15.1877 1.68749 15.1877H16.3125C16.4617 15.1877 16.6048 15.1285 16.7102 15.023C16.8157 14.9175 16.875 14.7744 16.875 14.6252V7.80492H1.12499V14.6252ZM3.4453 9.77367C3.4453 9.69908 3.47494 9.62754 3.52768 9.5748C3.58043 9.52205 3.65196 9.49242 3.72655 9.49242H6.96093C7.03552 9.49242 7.10706 9.52205 7.1598 9.5748C7.21255 9.62754 7.24218 9.69908 7.24218 9.77367V12.0237C7.24218 12.0983 7.21255 12.1698 7.1598 12.2225C7.10706 12.2753 7.03552 12.3049 6.96093 12.3049H3.72655C3.65196 12.3049 3.58043 12.2753 3.52768 12.2225C3.47494 12.1698 3.4453 12.0983 3.4453 12.0237V9.77367ZM16.3125 2.81273H1.68749C1.53831 2.81273 1.39523 2.872 1.28974 2.97749C1.18426 3.08298 1.12499 3.22605 1.12499 3.37524V5.69555H16.875V3.37524C16.875 3.22605 16.8157 3.08298 16.7102 2.97749C16.6048 2.872 16.4617 2.81273 16.3125 2.81273Z" fill="#333333"/>
</g>
</svg>
