<svg width="31" height="31" viewBox="0 0 31 31" fill="none" xmlns="http://www.w3.org/2000/svg">
<g id="material-symbols:menu-rounded">
<path id="Vector" d="M5.16667 23.25C4.8007 23.25 4.49414 23.126 4.247 22.878C3.99987 22.63 3.87587 22.3234 3.875 21.9583C3.87414 21.5932 3.99814 21.2867 4.247 21.0387C4.49587 20.7907 4.80242 20.6667 5.16667 20.6667H25.8333C26.1993 20.6667 26.5063 20.7907 26.7543 21.0387C27.0023 21.2867 27.1259 21.5932 27.125 21.9583C27.1241 22.3234 27.0001 22.6304 26.753 22.8793C26.5059 23.1282 26.1993 23.2517 25.8333 23.25H5.16667ZM5.16667 16.7917C4.8007 16.7917 4.49414 16.6677 4.247 16.4197C3.99987 16.1717 3.87587 15.8651 3.875 15.5C3.87414 15.1349 3.99814 14.8283 4.247 14.5803C4.49587 14.3323 4.80242 14.2083 5.16667 14.2083H25.8333C26.1993 14.2083 26.5063 14.3323 26.7543 14.5803C27.0023 14.8283 27.1259 15.1349 27.125 15.5C27.1241 15.8651 27.0001 16.1721 26.753 16.421C26.5059 16.6698 26.1993 16.7934 25.8333 16.7917H5.16667ZM5.16667 10.3333C4.8007 10.3333 4.49414 10.2093 4.247 9.96133C3.99987 9.71333 3.87587 9.40678 3.875 9.04167C3.87414 8.67656 3.99814 8.37 4.247 8.122C4.49587 7.874 4.80242 7.75 5.16667 7.75H25.8333C26.1993 7.75 26.5063 7.874 26.7543 8.122C27.0023 8.37 27.1259 8.67656 27.125 9.04167C27.1241 9.40678 27.0001 9.71376 26.753 9.96263C26.5059 10.2115 26.1993 10.3351 25.8333 10.3333H5.16667Z" fill="#333333"/>
</g>
</svg>
