<svg width="20" height="20" viewBox="0 0 20 20" fill="none" xmlns="http://www.w3.org/2000/svg">
<g id="mdi:tools">
<path id="Vector" d="M18.0917 16.9083L16.9084 18.0917C16.7522 18.2469 16.541 18.334 16.3209 18.334C16.1007 18.334 15.8895 18.2469 15.7334 18.0917L5.83335 8.20831C5.56238 8.28691 5.28212 8.32895 5.00001 8.33331C4.46943 8.33293 3.9466 8.2059 3.475 7.96278C3.0034 7.71965 2.59664 7.36747 2.28856 6.93549C1.98047 6.50352 1.77995 6.00424 1.70368 5.47917C1.6274 4.9541 1.67757 4.41841 1.85 3.91663L3.96668 6.0333L4.40834 5.59163L5.59168 4.4083L6.03335 3.96663L3.91668 1.84996C4.41845 1.67752 4.95415 1.62735 5.47922 1.70363C6.00429 1.77991 6.50357 1.98043 6.93554 2.28851C7.36751 2.5966 7.7197 3.00335 7.96282 3.47495C8.20594 3.94656 8.33297 4.46938 8.33335 4.99997C8.32899 5.28207 8.28696 5.56233 8.20835 5.8333L18.0917 15.7333C18.2469 15.8895 18.334 16.1007 18.334 16.3208C18.334 16.541 18.2469 16.7522 18.0917 16.9083ZM1.90834 15.7333C1.75313 15.8895 1.66601 16.1007 1.66601 16.3208C1.66601 16.541 1.75313 16.7522 1.90834 16.9083L3.09167 18.0917C3.24781 18.2469 3.45902 18.334 3.67917 18.334C3.89933 18.334 4.11054 18.2469 4.26668 18.0917L8.82502 13.5417L6.46668 11.1833M16.6667 1.66663L13.3334 3.3333V4.99997L11.525 6.8083L13.1917 8.47497L15 6.66664H16.6667L18.3334 3.3333L16.6667 1.66663Z" fill="#333333"/>
</g>
</svg>
