<svg width="19" height="19" viewBox="0 0 19 19" fill="none" xmlns="http://www.w3.org/2000/svg">
<g id="tabler:car-crane-filled">
<path id="Vector" d="M2.42245 4.48106L2.45016 4.41376L2.50558 4.31481L2.5317 4.27681L2.58158 4.21743L2.63225 4.16597L2.70983 4.10343L2.79374 4.05197L2.84679 4.02585L2.88479 4.01002L2.99483 3.97756L17.2867 1.59465C17.4001 1.5758 17.5162 1.58186 17.627 1.61241C17.7378 1.64295 17.8406 1.69725 17.9283 1.77153C18.0159 1.8458 18.0864 1.93828 18.1348 2.04253C18.1831 2.14678 18.2082 2.26031 18.2082 2.37523V3.95856C18.2082 4.16852 18.1248 4.36988 17.9764 4.51835C17.8279 4.66681 17.6265 4.75022 17.4166 4.75022C17.2066 4.75022 17.0052 4.66681 16.8568 4.51835C16.7083 4.36988 16.6249 4.16852 16.6249 3.95856V3.30939L5.69836 5.13022L6.68794 5.6258C6.81927 5.69161 6.9297 5.79267 7.00688 5.91766C7.08406 6.04265 7.12493 6.18665 7.12494 6.33355L7.12415 8.70854H8.70827V5.54189C8.70827 5.33192 8.79167 5.13056 8.94014 4.9821C9.0886 4.83363 9.28997 4.75022 9.49993 4.75022H12.6666C13.9264 4.75022 15.1345 5.25067 16.0253 6.14146C16.9161 7.03225 17.4166 8.24043 17.4166 9.5002V13.4585C17.4166 13.6685 17.3332 13.8698 17.1847 14.0183C17.0362 14.1668 16.8349 14.2502 16.6249 14.2502H15.6987C15.5351 14.7137 15.2318 15.1151 14.8305 15.3991C14.4293 15.683 13.9498 15.8355 13.4582 15.8355C12.9667 15.8355 12.4872 15.683 12.086 15.3991C11.6847 15.1151 11.3814 14.7137 11.2178 14.2502H6.19869C6.01174 14.7783 5.64415 15.2234 5.16085 15.5068C4.67754 15.7903 4.10963 15.8937 3.55743 15.799C3.00523 15.7043 2.50426 15.4175 2.14303 14.9892C1.7818 14.5609 1.58355 14.0188 1.58329 13.4585V9.5002C1.58329 9.29024 1.6667 9.08888 1.81516 8.94041C1.96363 8.79195 2.16499 8.70854 2.37495 8.70854V4.75814C2.37413 4.66368 2.39022 4.56984 2.42245 4.48106ZM3.95828 12.6669C3.74832 12.6669 3.54696 12.7503 3.39849 12.8987C3.25003 13.0472 3.16662 13.2486 3.16662 13.4585C3.16662 13.6685 3.25003 13.8698 3.39849 14.0183C3.54696 14.1668 3.74832 14.2502 3.95828 14.2502C4.16824 14.2502 4.36961 14.1668 4.51807 14.0183C4.66654 13.8698 4.74995 13.6685 4.74995 13.4585C4.74995 13.2486 4.66654 13.0472 4.51807 12.8987C4.36961 12.7503 4.16824 12.6669 3.95828 12.6669ZM13.4582 12.6669C13.3059 12.6668 13.1567 12.7108 13.0286 12.7934C12.9006 12.8761 12.7992 12.9939 12.7365 13.1328C12.6738 13.2717 12.6525 13.4258 12.6752 13.5765C12.6979 13.7272 12.7636 13.8681 12.8645 13.9824C12.9653 14.0966 13.097 14.1794 13.2437 14.2206C13.3904 14.2619 13.5459 14.2599 13.6915 14.215C13.8371 14.17 13.9667 14.084 14.0646 13.9672C14.1625 13.8505 14.2247 13.7079 14.2436 13.5567L14.2499 13.4522L14.2444 13.3659C14.2217 13.1733 14.1291 12.9958 13.9842 12.8669C13.8393 12.7381 13.6522 12.6669 13.4582 12.6669ZM12.9421 6.34542L13.6506 8.70854H15.7327L15.6994 8.58583C15.5269 8.01309 15.1957 7.50092 14.7442 7.10862C14.2926 6.71633 13.7392 6.45995 13.1479 6.36917L12.9421 6.34542Z" fill="#333333"/>
</g>
</svg>
