<svg width="20" height="20" viewBox="0 0 20 20" fill="none" xmlns="http://www.w3.org/2000/svg">
<g id="tabler:car-crane-filled">
<path id="Vector" d="M2.54996 4.71674L2.57913 4.64591L2.63746 4.54174L2.66496 4.50174L2.71746 4.43924L2.77079 4.38507L2.85246 4.31924L2.9408 4.26507L2.99663 4.23757L3.03663 4.22091L3.15246 4.18674L18.1967 1.6784C18.316 1.65856 18.4382 1.66494 18.5548 1.69709C18.6714 1.72925 18.7797 1.7864 18.872 1.86459C18.9643 1.94277 19.0384 2.04012 19.0893 2.14986C19.1402 2.2596 19.1666 2.3791 19.1667 2.50007V4.16674C19.1667 4.38775 19.0789 4.59972 18.9226 4.756C18.7663 4.91228 18.5543 5.00008 18.3333 5.00008C18.1123 5.00008 17.9004 4.91228 17.7441 4.756C17.5878 4.59972 17.5 4.38775 17.5 4.16674V3.4834L5.9983 5.40008L7.03997 5.92174C7.17822 5.99102 7.29446 6.09739 7.3757 6.22896C7.45694 6.36053 7.49997 6.51211 7.49997 6.66675L7.49914 9.16675H9.16664V5.83341C9.16664 5.6124 9.25444 5.40043 9.41072 5.24415C9.567 5.08787 9.77896 5.00008 9.99998 5.00008H13.3333C14.6594 5.00008 15.9312 5.52686 16.8689 6.46454C17.8065 7.40223 18.3333 8.674 18.3333 10.0001V14.1668C18.3333 14.3878 18.2455 14.5997 18.0893 14.756C17.933 14.9123 17.721 15.0001 17.5 15.0001H16.525C16.3528 15.488 16.0335 15.9106 15.6112 16.2094C15.1888 16.5083 14.6841 16.6688 14.1667 16.6688C13.6492 16.6688 13.1445 16.5083 12.7221 16.2094C12.2998 15.9106 11.9805 15.488 11.8083 15.0001H6.52497C6.32818 15.5561 5.94124 16.0246 5.43249 16.3229C4.92375 16.6212 4.32595 16.7302 3.74468 16.6305C3.16341 16.5308 2.63608 16.2288 2.25583 15.778C1.87559 15.3272 1.6669 14.7565 1.66663 14.1668V10.0001C1.66663 9.77907 1.75442 9.56711 1.9107 9.41083C2.06698 9.25455 2.27895 9.16675 2.49996 9.16675V5.00841C2.49909 4.90898 2.51603 4.8102 2.54996 4.71674ZM4.16663 13.3334C3.94562 13.3334 3.73366 13.4212 3.57737 13.5775C3.42109 13.7338 3.3333 13.9457 3.3333 14.1668C3.3333 14.3878 3.42109 14.5997 3.57737 14.756C3.73366 14.9123 3.94562 15.0001 4.16663 15.0001C4.38765 15.0001 4.59961 14.9123 4.75589 14.756C4.91217 14.5997 4.99997 14.3878 4.99997 14.1668C4.99997 13.9457 4.91217 13.7338 4.75589 13.5775C4.59961 13.4212 4.38765 13.3334 4.16663 13.3334ZM14.1667 13.3334C14.0062 13.3334 13.8492 13.3796 13.7144 13.4666C13.5797 13.5537 13.4729 13.6777 13.4069 13.8239C13.3409 13.9701 13.3185 14.1323 13.3424 14.2909C13.3663 14.4496 13.4355 14.5979 13.5416 14.7182C13.6478 14.8385 13.7864 14.9255 13.9408 14.969C14.0952 15.0124 14.2589 15.0103 14.4122 14.963C14.5655 14.9157 14.7019 14.8252 14.8049 14.7022C14.908 14.5793 14.9734 14.4293 14.9933 14.2701L15 14.1601L14.9942 14.0693C14.9703 13.8666 14.8728 13.6797 14.7203 13.544C14.5678 13.4084 14.3708 13.3335 14.1667 13.3334ZM13.6233 6.67925L14.3692 9.16675H16.5608L16.5258 9.03758C16.3442 8.43469 15.9956 7.89556 15.5202 7.48261C15.0449 7.06967 14.4623 6.7998 13.84 6.70425L13.6233 6.67925Z" fill="#333333"/>
</g>
</svg>
